<mxfile host="app.diagrams.net" modified="2024-03-21T12:34:01.901Z" agent="Mozilla/5.0 (Windows NT 10.0; Win64; x64) AppleWebKit/537.36 (KHTML, like Gecko) Chrome/123.0.0.0 Safari/537.36" etag="0qpiA4bbrWFEoe3tMctl" version="24.0.7" type="device">
  <diagram name="Page-1" id="7Ukh171TEO-5chYVcE6v">
    <mxGraphModel dx="696" dy="368" grid="1" gridSize="10" guides="1" tooltips="1" connect="1" arrows="1" fold="1" page="1" pageScale="1" pageWidth="850" pageHeight="1100" math="0" shadow="0">
      <root>
        <mxCell id="0" />
        <mxCell id="1" parent="0" />
        <mxCell id="ItyE1u_6WbOgaK0A6kJr-1" value="" style="swimlane;startSize=0;" vertex="1" parent="1">
          <mxGeometry x="280" y="40" width="200" height="660" as="geometry" />
        </mxCell>
        <mxCell id="ItyE1u_6WbOgaK0A6kJr-2" value="Register" style="ellipse;whiteSpace=wrap;html=1;" vertex="1" parent="ItyE1u_6WbOgaK0A6kJr-1">
          <mxGeometry x="40" y="30" width="120" height="80" as="geometry" />
        </mxCell>
        <mxCell id="ItyE1u_6WbOgaK0A6kJr-3" value="Data Collection" style="ellipse;whiteSpace=wrap;html=1;" vertex="1" parent="ItyE1u_6WbOgaK0A6kJr-1">
          <mxGeometry x="40" y="150" width="120" height="80" as="geometry" />
        </mxCell>
        <mxCell id="ItyE1u_6WbOgaK0A6kJr-4" value="Classification" style="ellipse;whiteSpace=wrap;html=1;" vertex="1" parent="ItyE1u_6WbOgaK0A6kJr-1">
          <mxGeometry x="40" y="246" width="120" height="80" as="geometry" />
        </mxCell>
        <mxCell id="ItyE1u_6WbOgaK0A6kJr-6" value="Preprocessing" style="ellipse;whiteSpace=wrap;html=1;" vertex="1" parent="ItyE1u_6WbOgaK0A6kJr-1">
          <mxGeometry x="40" y="343" width="120" height="80" as="geometry" />
        </mxCell>
        <mxCell id="ItyE1u_6WbOgaK0A6kJr-7" value="Analyse" style="ellipse;whiteSpace=wrap;html=1;" vertex="1" parent="ItyE1u_6WbOgaK0A6kJr-1">
          <mxGeometry x="40" y="440" width="120" height="80" as="geometry" />
        </mxCell>
        <mxCell id="ItyE1u_6WbOgaK0A6kJr-8" value="Predict" style="ellipse;whiteSpace=wrap;html=1;" vertex="1" parent="ItyE1u_6WbOgaK0A6kJr-1">
          <mxGeometry x="40" y="550" width="120" height="80" as="geometry" />
        </mxCell>
        <mxCell id="ItyE1u_6WbOgaK0A6kJr-16" value="" style="endArrow=none;html=1;rounded=0;exitX=1;exitY=0.5;exitDx=0;exitDy=0;" edge="1" parent="ItyE1u_6WbOgaK0A6kJr-1" source="ItyE1u_6WbOgaK0A6kJr-8">
          <mxGeometry width="50" height="50" relative="1" as="geometry">
            <mxPoint x="170" y="590" as="sourcePoint" />
            <mxPoint x="320" y="370" as="targetPoint" />
          </mxGeometry>
        </mxCell>
        <mxCell id="ItyE1u_6WbOgaK0A6kJr-9" value="User" style="shape=umlActor;verticalLabelPosition=bottom;verticalAlign=top;html=1;outlineConnect=0;" vertex="1" parent="1">
          <mxGeometry x="100" y="393" width="30" height="60" as="geometry" />
        </mxCell>
        <mxCell id="ItyE1u_6WbOgaK0A6kJr-10" value="Server" style="shape=umlActor;verticalLabelPosition=bottom;verticalAlign=top;html=1;outlineConnect=0;" vertex="1" parent="1">
          <mxGeometry x="600" y="393" width="30" height="60" as="geometry" />
        </mxCell>
        <mxCell id="ItyE1u_6WbOgaK0A6kJr-12" value="" style="endArrow=none;html=1;rounded=0;entryX=0;entryY=0.3333333333333333;entryDx=0;entryDy=0;entryPerimeter=0;exitX=1;exitY=0.5;exitDx=0;exitDy=0;" edge="1" parent="1" source="ItyE1u_6WbOgaK0A6kJr-3" target="ItyE1u_6WbOgaK0A6kJr-10">
          <mxGeometry width="50" height="50" relative="1" as="geometry">
            <mxPoint x="550" y="470" as="sourcePoint" />
            <mxPoint x="600" y="420" as="targetPoint" />
          </mxGeometry>
        </mxCell>
        <mxCell id="ItyE1u_6WbOgaK0A6kJr-13" value="" style="endArrow=none;html=1;rounded=0;exitX=1;exitY=0.5;exitDx=0;exitDy=0;entryX=0;entryY=0.3333333333333333;entryDx=0;entryDy=0;entryPerimeter=0;" edge="1" parent="1" source="ItyE1u_6WbOgaK0A6kJr-4" target="ItyE1u_6WbOgaK0A6kJr-10">
          <mxGeometry width="50" height="50" relative="1" as="geometry">
            <mxPoint x="550" y="460" as="sourcePoint" />
            <mxPoint x="600" y="410" as="targetPoint" />
          </mxGeometry>
        </mxCell>
        <mxCell id="ItyE1u_6WbOgaK0A6kJr-14" value="" style="endArrow=none;html=1;rounded=0;exitX=1;exitY=0.5;exitDx=0;exitDy=0;entryX=0;entryY=0.3333333333333333;entryDx=0;entryDy=0;entryPerimeter=0;" edge="1" parent="1" source="ItyE1u_6WbOgaK0A6kJr-6" target="ItyE1u_6WbOgaK0A6kJr-10">
          <mxGeometry width="50" height="50" relative="1" as="geometry">
            <mxPoint x="550" y="460" as="sourcePoint" />
            <mxPoint x="600" y="410" as="targetPoint" />
          </mxGeometry>
        </mxCell>
        <mxCell id="ItyE1u_6WbOgaK0A6kJr-15" value="" style="endArrow=none;html=1;rounded=0;exitX=1;exitY=0.5;exitDx=0;exitDy=0;" edge="1" parent="1" source="ItyE1u_6WbOgaK0A6kJr-7">
          <mxGeometry width="50" height="50" relative="1" as="geometry">
            <mxPoint x="550" y="470" as="sourcePoint" />
            <mxPoint x="600" y="410" as="targetPoint" />
          </mxGeometry>
        </mxCell>
        <mxCell id="ItyE1u_6WbOgaK0A6kJr-17" value="" style="endArrow=none;html=1;rounded=0;entryX=0;entryY=0.5;entryDx=0;entryDy=0;exitX=1;exitY=0.3333333333333333;exitDx=0;exitDy=0;exitPerimeter=0;" edge="1" parent="1" source="ItyE1u_6WbOgaK0A6kJr-9" target="ItyE1u_6WbOgaK0A6kJr-2">
          <mxGeometry width="50" height="50" relative="1" as="geometry">
            <mxPoint x="140" y="410" as="sourcePoint" />
            <mxPoint x="190" y="360" as="targetPoint" />
          </mxGeometry>
        </mxCell>
        <mxCell id="ItyE1u_6WbOgaK0A6kJr-18" value="" style="endArrow=none;html=1;rounded=0;entryX=0;entryY=0.5;entryDx=0;entryDy=0;exitX=1;exitY=0.3333333333333333;exitDx=0;exitDy=0;exitPerimeter=0;" edge="1" parent="1" source="ItyE1u_6WbOgaK0A6kJr-9" target="ItyE1u_6WbOgaK0A6kJr-3">
          <mxGeometry width="50" height="50" relative="1" as="geometry">
            <mxPoint x="170" y="420" as="sourcePoint" />
            <mxPoint x="220" y="370" as="targetPoint" />
          </mxGeometry>
        </mxCell>
      </root>
    </mxGraphModel>
  </diagram>
</mxfile>
